<svg width="25" height="24" viewBox="0 0 25 24" fill="none" xmlns="http://www.w3.org/2000/svg">
<path d="M19.1667 2C20.0507 2 20.8986 2.35119 21.5237 2.97631C22.1488 3.60143 22.5 4.44928 22.5 5.33333V7.71444C22.5 8.08556 22.5 8.27111 22.4144 8.40667C22.3701 8.47715 22.3105 8.53677 22.24 8.58111C22.1044 8.66667 21.9189 8.66667 21.5478 8.66667H15.8333M19.1667 2C18.2826 2 17.4348 2.35119 16.8096 2.97631C16.1845 3.60143 15.8333 4.44928 15.8333 5.33333V8.66667M19.1667 2H6.94444C4.84889 2 3.80222 2 3.15111 2.65111C2.5 3.30222 2.5 4.34889 2.5 6.44444V22L5.83333 20.8889L9.16667 22L12.5 20.8889L15.8333 22V8.66667" stroke="#BBBBBB"/>
<path d="M6.94434 6.44444H11.3888M8.05545 10.8889H6.94434M6.94434 15.3333H10.2777" stroke="#BBBBBB" stroke-linecap="round"/>
</svg>
