<svg width="20" height="24" viewBox="0 0 20 24" fill="none" xmlns="http://www.w3.org/2000/svg">
<path d="M5.33325 5.29997C5.33325 2.72163 7.42158 0.633301 9.99991 0.633301C12.5782 0.633301 14.6666 2.72163 14.6666 5.29997C14.6666 7.8783 12.5782 9.96663 9.99991 9.96663C7.42158 9.96663 5.33325 7.8783 5.33325 5.29997ZM15.8332 23.9666H16.9999C18.2832 23.9666 19.3332 22.9166 19.3332 21.6333V16.0566C19.3332 14.75 18.6216 13.5483 17.4549 12.9533C16.9532 12.6966 16.4166 12.4516 15.8332 12.23V23.9666ZM10.3966 18.1333L13.4999 11.5183C12.4149 11.2733 11.2482 11.1333 9.99991 11.1333C7.04825 11.1333 4.50491 11.95 2.54491 12.9533C1.97565 13.2465 1.49876 13.6917 1.1672 14.2395C0.835627 14.7873 0.662344 15.4163 0.66658 16.0566V23.9666H3.39658C3.13991 23.4416 2.99991 22.8466 2.99991 22.2166C2.99991 19.965 4.83158 18.1333 7.08325 18.1333H10.3966ZM7.66658 23.9666L9.31158 20.4666H7.08325C6.11491 20.4666 5.33325 21.2483 5.33325 22.2166C5.33325 23.185 6.11491 23.9666 7.08325 23.9666H7.66658Z" fill="#4ACDD1"/>
</svg>
