<svg width="20" height="21" viewBox="0 0 20 21" fill="none" xmlns="http://www.w3.org/2000/svg">
<path d="M11.5 20.3C9.7 20.3 8.16667 19.6667 6.9 18.4C5.63333 17.1333 5 15.6 5 13.8V13.225C3.56667 12.9917 2.375 12.3207 1.425 11.212C0.475 10.1033 0 8.79932 0 7.29999V1.29999H3V0.299988H5V4.29999H3V3.29999H2V7.29999C2 8.39999 2.39167 9.34165 3.175 10.125C3.95833 10.9083 4.9 11.3 6 11.3C7.1 11.3 8.04167 10.9083 8.825 10.125C9.60833 9.34165 10 8.39999 10 7.29999V3.29999H9V4.29999H7V0.299988H9V1.29999H12V7.29999C12 8.79999 11.525 10.1043 10.575 11.213C9.625 12.3217 8.43333 12.9923 7 13.225V13.8C7 15.05 7.43767 16.1127 8.313 16.988C9.18833 17.8633 10.2507 18.3007 11.5 18.3C12.7493 18.2993 13.812 17.862 14.688 16.988C15.564 16.114 16.0013 15.0513 16 13.8V12.125C15.4167 11.925 14.9377 11.5667 14.563 11.05C14.1883 10.5333 14.0007 9.94999 14 9.29999C14 8.46665 14.2917 7.75832 14.875 7.17499C15.4583 6.59165 16.1667 6.29999 17 6.29999C17.8333 6.29999 18.5417 6.59165 19.125 7.17499C19.7083 7.75832 20 8.46665 20 9.29999C20 9.94999 19.8127 10.5333 19.438 11.05C19.0633 11.5667 18.584 11.925 18 12.125V13.8C18 15.6 17.3667 17.1333 16.1 18.4C14.8333 19.6667 13.3 20.3 11.5 20.3Z" fill="#EDFAFA"/>
</svg>
