<svg width="11" height="12" viewBox="0 0 11 12" fill="none" xmlns="http://www.w3.org/2000/svg">
<path fill-rule="evenodd" clip-rule="evenodd" d="M2.8335 0.466675C2.9661 0.466675 3.09328 0.519353 3.18705 0.613121C3.28082 0.70689 3.3335 0.834067 3.3335 0.966675V1.46667H7.66683V0.966675C7.66683 0.834067 7.71951 0.70689 7.81328 0.613121C7.90704 0.519353 8.03422 0.466675 8.16683 0.466675C8.29944 0.466675 8.42661 0.519353 8.52038 0.613121C8.61415 0.70689 8.66683 0.834067 8.66683 0.966675V1.47201C8.76816 1.47467 8.86261 1.47956 8.95016 1.48667C9.2035 1.50667 9.44083 1.55201 9.66549 1.66667C10.0105 1.84246 10.291 2.12297 10.4668 2.46801C10.5815 2.69267 10.6268 2.93001 10.6468 3.18334C10.6668 3.42667 10.6668 3.72334 10.6668 4.08001V9.18667C10.6668 9.54334 10.6668 9.84001 10.6468 10.0833C10.6268 10.3367 10.5815 10.574 10.4668 10.7987C10.2912 11.1436 10.011 11.4241 9.66616 11.6C9.44083 11.7147 9.2035 11.76 8.95016 11.78C8.70683 11.8 8.41016 11.8 8.05416 11.8H2.94683C2.59016 11.8 2.2935 11.8 2.05016 11.78C1.79683 11.76 1.5595 11.7147 1.33483 11.6C0.989996 11.4246 0.709503 11.1445 0.533496 10.8C0.41883 10.5747 0.373496 10.3373 0.353496 10.084C0.333496 9.84067 0.333496 9.54401 0.333496 9.18801V4.08001C0.333496 3.72334 0.333496 3.42667 0.353496 3.18334C0.373496 2.93001 0.41883 2.69267 0.533496 2.46801C0.709277 2.12297 0.989793 1.84246 1.33483 1.66667C1.5595 1.55201 1.79683 1.50667 2.05016 1.48667C2.13772 1.47956 2.23216 1.47467 2.3335 1.47201V0.966675C2.3335 0.901014 2.34643 0.835996 2.37156 0.775333C2.39668 0.71467 2.43351 0.659551 2.47994 0.613121C2.52637 0.566692 2.58149 0.529862 2.64215 0.504735C2.70282 0.479608 2.76783 0.466675 2.8335 0.466675ZM9.66683 5.13334H1.3335V9.16667C1.3335 9.54801 1.3335 9.80467 1.35016 10.0013C1.3655 10.1933 1.3935 10.2847 1.42416 10.3447C1.50416 10.502 1.6315 10.6293 1.78883 10.7093C1.84883 10.74 1.94016 10.768 2.1315 10.7833C2.32883 10.7993 2.58483 10.8 2.96683 10.8H8.0335C8.41483 10.8 8.6715 10.8 8.86816 10.7833C9.06016 10.768 9.15149 10.74 9.2115 10.7093C9.36855 10.6294 9.49622 10.5017 9.57616 10.3447C9.60683 10.2847 9.63483 10.1933 9.65016 10.0013C9.66616 9.80467 9.66683 9.54801 9.66683 9.16667V5.13334ZM4.50016 2.96667C4.36755 2.96667 4.24038 3.01935 4.14661 3.11312C4.05284 3.20689 4.00016 3.33407 4.00016 3.46667C4.00016 3.59928 4.05284 3.72646 4.14661 3.82023C4.24038 3.914 4.36755 3.96667 4.50016 3.96667H6.50016C6.63277 3.96667 6.75995 3.914 6.85372 3.82023C6.94748 3.72646 7.00016 3.59928 7.00016 3.46667C7.00016 3.33407 6.94748 3.20689 6.85372 3.11312C6.75995 3.01935 6.63277 2.96667 6.50016 2.96667H4.50016Z" fill="#4ACDD1"/>
</svg>
